@startuml
class Visitor{
operation1():void
operation2():void
}
class ConcreteVisitor{
operation1():void
operation2():void
}
class Element{
accept(visitor:Visitor):void
}
class ConcreteElement{
accept(visitor:Visitor):void
}

class ObjectStructure{
element:Element
}
class Client

Client ..> Visitor
Client ..> ObjectStructure
Element ..> Visitor
ConcreteVisitor --|> Visitor
ConcreteElement --|> Element
Element --o ObjectStructure

@enduml